<mxfile host="Electron" modified="2023-06-24T02:56:34.685Z" agent="Mozilla/5.0 (Macintosh; Intel Mac OS X 10_15_7) AppleWebKit/537.36 (KHTML, like Gecko) draw.io/21.2.1 Chrome/112.0.5615.87 Electron/24.1.2 Safari/537.36" etag="2ugS6duNW0FWgvMHXCkf" version="21.2.1" type="device">
  <diagram id="Iv4A18RT-J0Pq_w1v7ui" name="Page-1">
    <mxGraphModel dx="794" dy="574" grid="0" gridSize="10" guides="1" tooltips="1" connect="1" arrows="1" fold="1" page="1" pageScale="1" pageWidth="850" pageHeight="1100" math="0" shadow="0">
      <root>
        <mxCell id="0" />
        <mxCell id="1" parent="0" />
        <mxCell id="OugmeXEE1IfvAE5kByUR-1" value="&lt;i&gt;Prototype&lt;/i&gt;" style="swimlane;fontStyle=1;align=center;verticalAlign=top;childLayout=stackLayout;horizontal=1;startSize=26;horizontalStack=0;resizeParent=1;resizeParentMax=0;resizeLast=0;collapsible=1;marginBottom=0;whiteSpace=wrap;html=1;" parent="1" vertex="1">
          <mxGeometry x="439" y="250" width="160" height="86" as="geometry" />
        </mxCell>
        <mxCell id="OugmeXEE1IfvAE5kByUR-2" value="&amp;nbsp;" style="text;strokeColor=none;fillColor=none;align=left;verticalAlign=top;spacingLeft=4;spacingRight=4;overflow=hidden;rotatable=0;points=[[0,0.5],[1,0.5]];portConstraint=eastwest;whiteSpace=wrap;html=1;" parent="OugmeXEE1IfvAE5kByUR-1" vertex="1">
          <mxGeometry y="26" width="160" height="26" as="geometry" />
        </mxCell>
        <mxCell id="OugmeXEE1IfvAE5kByUR-3" value="" style="line;strokeWidth=1;fillColor=none;align=left;verticalAlign=middle;spacingTop=-1;spacingLeft=3;spacingRight=3;rotatable=0;labelPosition=right;points=[];portConstraint=eastwest;strokeColor=inherit;" parent="OugmeXEE1IfvAE5kByUR-1" vertex="1">
          <mxGeometry y="52" width="160" height="8" as="geometry" />
        </mxCell>
        <mxCell id="OugmeXEE1IfvAE5kByUR-4" value="&lt;i&gt;+ clone(): Prototype&lt;/i&gt;" style="text;strokeColor=none;fillColor=none;align=left;verticalAlign=top;spacingLeft=4;spacingRight=4;overflow=hidden;rotatable=0;points=[[0,0.5],[1,0.5]];portConstraint=eastwest;whiteSpace=wrap;html=1;" parent="OugmeXEE1IfvAE5kByUR-1" vertex="1">
          <mxGeometry y="60" width="160" height="26" as="geometry" />
        </mxCell>
        <mxCell id="OugmeXEE1IfvAE5kByUR-5" value="ConcretePrototype1" style="swimlane;fontStyle=1;align=center;verticalAlign=top;childLayout=stackLayout;horizontal=1;startSize=26;horizontalStack=0;resizeParent=1;resizeParentMax=0;resizeLast=0;collapsible=1;marginBottom=0;whiteSpace=wrap;html=1;" parent="1" vertex="1">
          <mxGeometry x="346" y="401" width="160" height="86" as="geometry" />
        </mxCell>
        <mxCell id="OugmeXEE1IfvAE5kByUR-6" value="&amp;nbsp;" style="text;strokeColor=none;fillColor=none;align=left;verticalAlign=top;spacingLeft=4;spacingRight=4;overflow=hidden;rotatable=0;points=[[0,0.5],[1,0.5]];portConstraint=eastwest;whiteSpace=wrap;html=1;" parent="OugmeXEE1IfvAE5kByUR-5" vertex="1">
          <mxGeometry y="26" width="160" height="26" as="geometry" />
        </mxCell>
        <mxCell id="OugmeXEE1IfvAE5kByUR-7" value="" style="line;strokeWidth=1;fillColor=none;align=left;verticalAlign=middle;spacingTop=-1;spacingLeft=3;spacingRight=3;rotatable=0;labelPosition=right;points=[];portConstraint=eastwest;strokeColor=inherit;" parent="OugmeXEE1IfvAE5kByUR-5" vertex="1">
          <mxGeometry y="52" width="160" height="8" as="geometry" />
        </mxCell>
        <mxCell id="OugmeXEE1IfvAE5kByUR-8" value="+ clone(): Prototype" style="text;strokeColor=none;fillColor=none;align=left;verticalAlign=top;spacingLeft=4;spacingRight=4;overflow=hidden;rotatable=0;points=[[0,0.5],[1,0.5]];portConstraint=eastwest;whiteSpace=wrap;html=1;" parent="OugmeXEE1IfvAE5kByUR-5" vertex="1">
          <mxGeometry y="60" width="160" height="26" as="geometry" />
        </mxCell>
        <mxCell id="OugmeXEE1IfvAE5kByUR-9" value="ConcretePrototype2" style="swimlane;fontStyle=1;align=center;verticalAlign=top;childLayout=stackLayout;horizontal=1;startSize=26;horizontalStack=0;resizeParent=1;resizeParentMax=0;resizeLast=0;collapsible=1;marginBottom=0;whiteSpace=wrap;html=1;" parent="1" vertex="1">
          <mxGeometry x="534" y="400" width="160" height="86" as="geometry" />
        </mxCell>
        <mxCell id="OugmeXEE1IfvAE5kByUR-10" value="&amp;nbsp;" style="text;strokeColor=none;fillColor=none;align=left;verticalAlign=top;spacingLeft=4;spacingRight=4;overflow=hidden;rotatable=0;points=[[0,0.5],[1,0.5]];portConstraint=eastwest;whiteSpace=wrap;html=1;" parent="OugmeXEE1IfvAE5kByUR-9" vertex="1">
          <mxGeometry y="26" width="160" height="26" as="geometry" />
        </mxCell>
        <mxCell id="OugmeXEE1IfvAE5kByUR-11" value="" style="line;strokeWidth=1;fillColor=none;align=left;verticalAlign=middle;spacingTop=-1;spacingLeft=3;spacingRight=3;rotatable=0;labelPosition=right;points=[];portConstraint=eastwest;strokeColor=inherit;" parent="OugmeXEE1IfvAE5kByUR-9" vertex="1">
          <mxGeometry y="52" width="160" height="8" as="geometry" />
        </mxCell>
        <mxCell id="OugmeXEE1IfvAE5kByUR-12" value="+ clone(): Prototype" style="text;strokeColor=none;fillColor=none;align=left;verticalAlign=top;spacingLeft=4;spacingRight=4;overflow=hidden;rotatable=0;points=[[0,0.5],[1,0.5]];portConstraint=eastwest;whiteSpace=wrap;html=1;" parent="OugmeXEE1IfvAE5kByUR-9" vertex="1">
          <mxGeometry y="60" width="160" height="26" as="geometry" />
        </mxCell>
        <mxCell id="OugmeXEE1IfvAE5kByUR-13" value="" style="endArrow=block;endSize=16;endFill=0;html=1;rounded=0;exitX=0.5;exitY=0;exitDx=0;exitDy=0;entryX=0.413;entryY=1.038;entryDx=0;entryDy=0;entryPerimeter=0;" parent="1" source="OugmeXEE1IfvAE5kByUR-5" target="OugmeXEE1IfvAE5kByUR-4" edge="1">
          <mxGeometry width="160" relative="1" as="geometry">
            <mxPoint x="220" y="310" as="sourcePoint" />
            <mxPoint x="380" y="310" as="targetPoint" />
          </mxGeometry>
        </mxCell>
        <mxCell id="OugmeXEE1IfvAE5kByUR-14" value="" style="endArrow=block;endSize=16;endFill=0;html=1;rounded=0;exitX=0.5;exitY=0;exitDx=0;exitDy=0;entryX=0.65;entryY=1;entryDx=0;entryDy=0;entryPerimeter=0;" parent="1" source="OugmeXEE1IfvAE5kByUR-9" target="OugmeXEE1IfvAE5kByUR-4" edge="1">
          <mxGeometry width="160" relative="1" as="geometry">
            <mxPoint x="340" y="310" as="sourcePoint" />
            <mxPoint x="500" y="310" as="targetPoint" />
          </mxGeometry>
        </mxCell>
        <mxCell id="OugmeXEE1IfvAE5kByUR-15" value="return copy of self" style="shape=note;size=9;whiteSpace=wrap;html=1;" parent="1" vertex="1">
          <mxGeometry x="382" y="530" width="124" height="30" as="geometry" />
        </mxCell>
        <mxCell id="OugmeXEE1IfvAE5kByUR-16" value="" style="endArrow=none;dashed=1;html=1;rounded=0;entryX=0.726;entryY=0;entryDx=0;entryDy=0;entryPerimeter=0;startArrow=oval;startFill=0;exitX=0.788;exitY=0.346;exitDx=0;exitDy=0;exitPerimeter=0;" parent="1" source="OugmeXEE1IfvAE5kByUR-8" target="OugmeXEE1IfvAE5kByUR-15" edge="1">
          <mxGeometry width="50" height="50" relative="1" as="geometry">
            <mxPoint x="540" y="530" as="sourcePoint" />
            <mxPoint x="450" y="370" as="targetPoint" />
          </mxGeometry>
        </mxCell>
        <mxCell id="OugmeXEE1IfvAE5kByUR-17" value="return copy of self" style="shape=note;size=9;whiteSpace=wrap;html=1;" parent="1" vertex="1">
          <mxGeometry x="572" y="530" width="124" height="30" as="geometry" />
        </mxCell>
        <mxCell id="OugmeXEE1IfvAE5kByUR-18" value="" style="endArrow=none;dashed=1;html=1;rounded=0;entryX=0.726;entryY=0;entryDx=0;entryDy=0;entryPerimeter=0;startArrow=oval;startFill=0;exitX=0.788;exitY=0.346;exitDx=0;exitDy=0;exitPerimeter=0;" parent="1" target="OugmeXEE1IfvAE5kByUR-17" edge="1">
          <mxGeometry width="50" height="50" relative="1" as="geometry">
            <mxPoint x="662" y="470" as="sourcePoint" />
            <mxPoint x="640" y="370" as="targetPoint" />
          </mxGeometry>
        </mxCell>
        <mxCell id="OugmeXEE1IfvAE5kByUR-19" value="Client" style="swimlane;fontStyle=1;align=center;verticalAlign=top;childLayout=stackLayout;horizontal=1;startSize=26;horizontalStack=0;resizeParent=1;resizeParentMax=0;resizeLast=0;collapsible=1;marginBottom=0;whiteSpace=wrap;html=1;" parent="1" vertex="1">
          <mxGeometry x="130" y="250" width="160" height="86" as="geometry" />
        </mxCell>
        <mxCell id="OugmeXEE1IfvAE5kByUR-20" value="&amp;nbsp;" style="text;strokeColor=none;fillColor=none;align=left;verticalAlign=top;spacingLeft=4;spacingRight=4;overflow=hidden;rotatable=0;points=[[0,0.5],[1,0.5]];portConstraint=eastwest;whiteSpace=wrap;html=1;" parent="OugmeXEE1IfvAE5kByUR-19" vertex="1">
          <mxGeometry y="26" width="160" height="26" as="geometry" />
        </mxCell>
        <mxCell id="OugmeXEE1IfvAE5kByUR-21" value="" style="line;strokeWidth=1;fillColor=none;align=left;verticalAlign=middle;spacingTop=-1;spacingLeft=3;spacingRight=3;rotatable=0;labelPosition=right;points=[];portConstraint=eastwest;strokeColor=inherit;" parent="OugmeXEE1IfvAE5kByUR-19" vertex="1">
          <mxGeometry y="52" width="160" height="8" as="geometry" />
        </mxCell>
        <mxCell id="OugmeXEE1IfvAE5kByUR-22" value="+ operation()" style="text;strokeColor=none;fillColor=none;align=left;verticalAlign=top;spacingLeft=4;spacingRight=4;overflow=hidden;rotatable=0;points=[[0,0.5],[1,0.5]];portConstraint=eastwest;whiteSpace=wrap;html=1;" parent="OugmeXEE1IfvAE5kByUR-19" vertex="1">
          <mxGeometry y="60" width="160" height="26" as="geometry" />
        </mxCell>
        <mxCell id="OugmeXEE1IfvAE5kByUR-23" value="p = prototype-&amp;gt;clone()" style="shape=note;size=9;whiteSpace=wrap;html=1;" parent="1" vertex="1">
          <mxGeometry x="135" y="380" width="144" height="30" as="geometry" />
        </mxCell>
        <mxCell id="OugmeXEE1IfvAE5kByUR-24" value="" style="endArrow=none;dashed=1;html=1;rounded=0;entryX=0.726;entryY=0;entryDx=0;entryDy=0;entryPerimeter=0;startArrow=oval;startFill=0;exitX=0.788;exitY=0.346;exitDx=0;exitDy=0;exitPerimeter=0;" parent="1" target="OugmeXEE1IfvAE5kByUR-23" edge="1">
          <mxGeometry width="50" height="50" relative="1" as="geometry">
            <mxPoint x="240" y="320" as="sourcePoint" />
            <mxPoint x="218" y="220" as="targetPoint" />
          </mxGeometry>
        </mxCell>
        <mxCell id="OugmeXEE1IfvAE5kByUR-25" value="" style="endArrow=open;endSize=12;dashed=1;html=1;rounded=0;exitX=1;exitY=0.5;exitDx=0;exitDy=0;entryX=0;entryY=0.5;entryDx=0;entryDy=0;" parent="1" source="OugmeXEE1IfvAE5kByUR-20" target="OugmeXEE1IfvAE5kByUR-2" edge="1">
          <mxGeometry width="160" relative="1" as="geometry">
            <mxPoint x="340" y="400" as="sourcePoint" />
            <mxPoint x="500" y="400" as="targetPoint" />
          </mxGeometry>
        </mxCell>
      </root>
    </mxGraphModel>
  </diagram>
</mxfile>
